<svg enable-background="new 0 0 1024 1024" height="1024" image-rendering="optimizeSpeed" viewBox="0 0 1024 1024" width="1024" xmlns="http://www.w3.org/2000/svg" xmlns:xlink="http://www.w3.org/1999/xlink"><mask id="a"><path d="m962.95 367.95c-1.6-5.15-3.4-10.5-5.3-15.85-6.45-18.25-14.15-36.05-23.15-53.65-3.8-7.4-7.95-14.95-12.3-22.4-20.3-34.5-45.8-67.2-76.35-97.75-72.6-72.6-157.15-116.65-253.65-132.05-16.25-2.6-32.8-4.4-50.05-5.35-9.7-.55-19.85-.85-30.1-.85-9.35 0-18.6.25-27.9.75-118.35 6.1-220.3 51.95-305.85 137.5q-138.25 138.25-138.25 333.75c0 130.35 46.1 241.65 138.25 333.8 56.7 56.65 120.55 95.9 191.1 117.55 36.75 11.25 74.8 17.85 114.75 19.95h.4c8.5.45 16.6.7 24.5.7h3c10.3 0 20.5-.3 30.1-.8 2.5-.15 4.75-.3 6.95-.45 20.2-1.45 39.9-4.05 58.7-7.7 7.95-1.55 15.8-3.3 23.4-5.15 80.8-20.3 152.15-61.6 214.65-124.1 48.6-48.6 84.4-102.5 107.35-161.8 18.45-47.65 28.65-98.8 30.55-153.5.2-6.05.3-12.25.3-18.5 0-.65 0-1.35 0-2 0-.35 0-.65 0-1-.2-40.65-4.95-79.5-14.3-117-1.1-4.35-2.35-9-3.65-13.6-1-3.4-2-6.85-3.15-10.5z" fill="#fff" image-rendering="optimizeSpeed"/></mask><path d="m969.65 351.3q-8.6-20.85-19.4-40.85c-4.05-7.55-8.35-15.05-12.9-22.4-19.55-31.7-43.4-61.65-71.55-89.8-92.15-92.15-203.45-138.25-333.8-138.25s-241.6 46.1-333.75 138.25-138.25 203.4-138.25 333.75 46.1 241.65 138.25 333.8 203.4 138.2 333.75 138.2 241.65-46.05 333.8-138.2c50.75-50.8 87.55-107.4 110.35-169.75 18.55-50.85 27.85-105.5 27.85-164.05 0-44.9-5.45-87.55-16.4-127.95-1.25-4.55-2.55-9.1-3.9-13.6-4.1-13.3-8.8-26.35-14.05-39.15z" fill-opacity=".098039"/><path d="m962.95 367.95c-1.6-5.15-3.4-10.5-5.3-15.85-6.45-18.25-14.15-36.05-23.15-53.65-3.8-7.4-7.95-14.95-12.3-22.4-20.3-34.5-45.8-67.2-76.35-97.75-72.6-72.6-157.15-116.65-253.65-132.05-16.25-2.6-32.8-4.4-50.05-5.35-9.7-.55-19.85-.85-30.1-.85-9.35 0-18.6.25-27.9.75-118.35 6.1-220.3 51.95-305.85 137.5q-138.25 138.25-138.25 333.75c0 130.35 46.1 241.65 138.25 333.8 56.7 56.65 120.55 95.9 191.1 117.55 36.75 11.25 74.8 17.85 114.75 19.95h.4c8.5.45 16.6.7 24.5.7h3c10.3 0 20.5-.3 30.1-.8 2.5-.15 4.75-.3 6.95-.45 20.2-1.45 39.9-4.05 58.7-7.7 7.95-1.55 15.8-3.3 23.4-5.15 80.8-20.3 152.15-61.6 214.65-124.1 48.6-48.6 84.4-102.5 107.35-161.8 18.45-47.65 28.65-98.8 30.55-153.5.2-6.05.3-12.25.3-18.5 0-.65 0-1.35 0-2 0-.35 0-.65 0-1-.2-40.65-4.95-79.5-14.3-117-1.1-4.35-2.35-9-3.65-13.6-1-3.4-2-6.85-3.15-10.5z" fill="#547587"/><path d="m122.55 658.975q.201.538.4 1.075h4.625.025c-2-.05-3.7-.4-5.05-1.05m270-225.95h-22.9c-6.65 0-10 3.35-10 10 .9 31.6 1.15 62.25.7 92l22.2.5c6.65 0 10-3.35 10-10z" fill="#494949"/><g mask="url(#a)"><path d="m978.05 804.05c7.1-6.3 6-300 6-300l-358.7-372-35.2 191.35-191.35-191.35-38.35 679.2z" fill-opacity=".298039"/><path d="m512.5 281.1c-.15 0-.3 0-.45 0s-.35 0-.5 0c-25.55.3-48.8 6.05-69.8 17.25l-43-166.25-35.4 265c-1.65 6.65-2.85 13-3.5 19-.6 5.1-.85 9.95-.7 14.55.15 6.85.4 13.45.7 19.5.15 3.3.3 6.2.45 9.05v87.9c-.15.05-.3.05-.45.1-128.7 28.15-285.2 51.25-349.5 69.25 152.1-2.05 359.3 30.15 501.65 96.6 129.25-68.25 336.45-100.45 501.7-96.6-64.35-18.05-221-41.15-349.95-69.35v-87.9q1.55-11.25 1.55-23.1c0-13.65-1.55-26.65-4.6-39l-35.4-265-43 166.25c-21-11.2-44.25-16.95-69.8-17.25z" fill="#333"/><path d="m1013.7 616.45c-165.25-3.85-372.45 28.35-501.7 96.6-142.35-66.45-349.55-98.65-501.65-96.6v367.65h1003.35z" fill="#666"/><path d="m619.3 463.7-106.4 41.55-106.45-41.55v142.15l66.55 66.45h79.75l66.55-66.45z" fill="#666"/><path d="m650.6 748.3c-38.25-14.85-84.45-22.3-138.55-22.3-54.15 0-100.35 7.45-138.6 22.3q-57.4 22.3-57.4 53.85c0 21.05 19.15 39.05 57.4 53.9s84.45 22.3 138.6 22.3c54.1 0 100.3-7.45 138.55-22.3s57.4-32.85 57.4-53.9-19.15-39-57.4-53.85z" fill="#f2dd69"/><path d="m551.65 770.6c-17.2 1.5-23.4-19.7-23.4-19.7l5.3 10.4-5.3-10.4q-3.45 3.85-8.75 6.2-3.85 1.85-5.5 1.85c-.9 0-8.95-2.05-14.25-8.05l-5.3 10.4 5.3-10.4s-6.2 21.2-23.2 19.7c-17.15-1.45-35.45-18.25-35.45-18.25l11.35 8.6-11.35-8.6-14.8 11.5 14.8-11.5s-29.05 14.8-31.75 48.05c-1.65 20.1 11.3 28.15 11.3 28.15s12.45-11.35 22.3-10.45c9.7.75 21 17.4 21 17.4l6.2-1.85-6.2 1.85s10.25-3.85 19.55-2.95c9.5.75 30.5 23 30.5 23s21-22.25 30.5-23c9.5-.9 19.75 2.95 19.75 2.95s11.15-16.65 21-17.4c9.85-.9 22.1 10.45 22.1 10.45s13.15-8.05 11.5-28.15c-2.75-33.25-31.75-48.05-31.75-48.05l14.8 11.5-14.8-11.5-11.35 8.6 11.35-8.6s-18.45 16.8-35.45 18.25z" fill="#333"/><path d="m597.85 432.15-36.85 9.85-13.75 15.05 36.85-9.9zm-135.5 9.85-36.85-9.85 13.75 15 36.85 9.9z" fill="#f60"/></g></svg>